<?xml version="1.0" standalone="no"?>
<!DOCTYPE svg PUBLIC "-//W3C//DTD SVG 20010904//EN"
 "http://www.w3.org/TR/2001/REC-SVG-20010904/DTD/svg10.dtd">
<svg version="1.0" xmlns="http://www.w3.org/2000/svg"
 width="200.000000pt" height="200.000000pt" viewBox="0 0 200.000000 200.000000"
 preserveAspectRatio="xMidYMid meet">
<metadata>
Created by potrace 1.11, written by Peter Selinger 2001-2013
</metadata>
<g transform="translate(0.000000,200.000000) scale(0.100000,-0.100000)"
fill="#000000" stroke="none">
<path d="M0 1000 l0 -1000 1000 0 1000 0 0 1000 0 1000 -1000 0 -1000 0 0
-1000z m858 568 c-2 -17 -11 -24 -33 -26 -75 -7 -104 -36 -90 -90 6 -23 245
-429 297 -505 l20 -27 101 128 c56 70 145 181 197 247 112 140 119 152 120
186 0 32 -47 59 -103 59 -48 0 -67 9 -67 31 0 18 12 19 301 19 l300 0 -3 -22
c-2 -14 -11 -24 -23 -25 -74 -11 -129 -28 -170 -55 -28 -19 -155 -154 -326
-350 l-279 -319 1 -187 c0 -118 5 -200 12 -221 18 -51 73 -90 146 -104 53 -10
61 -14 61 -34 l0 -23 -342 2 c-340 3 -343 3 -346 24 -3 18 3 22 42 27 69 10
110 31 142 73 l29 37 3 203 3 203 -210 314 c-116 174 -220 325 -233 337 -37
36 -106 62 -182 69 -64 5 -71 8 -74 29 l-3 22 356 0 356 0 -3 -22z"/>
</g>
</svg>
